<svg id="visual" viewBox="0 0 900 100" width="900" height="100" xmlns="http://www.w3.org/2000/svg" xmlns:xlink="http://www.w3.org/1999/xlink" version="1.1"><rect x="0" y="0" width="900" height="100" fill="#04002C"></rect><path d="M0 25L7.2 23.3C14.3 21.7 28.7 18.3 43 19.2C57.3 20 71.7 25 86 25.2C100.3 25.3 114.7 20.7 128.8 20.8C143 21 157 26 171.2 27.3C185.3 28.7 199.7 26.3 214 22.5C228.3 18.7 242.7 13.3 257 9.3C271.3 5.3 285.7 2.7 300 6.3C314.3 10 328.7 20 343 22C357.3 24 371.7 18 386 14.2C400.3 10.3 414.7 8.7 428.8 8.7C443 8.7 457 10.3 471.2 13.8C485.3 17.3 499.7 22.7 514 23.2C528.3 23.7 542.7 19.3 557 18.7C571.3 18 585.7 21 600 19.3C614.3 17.7 628.7 11.3 643 7.5C657.3 3.7 671.7 2.3 686 5.7C700.3 9 714.7 17 728.8 22C743 27 757 29 771.2 27.7C785.3 26.3 799.7 21.7 814 18.5C828.3 15.3 842.7 13.7 857 12.5C871.3 11.3 885.7 10.7 892.8 10.3L900 10L900 101L892.8 101C885.7 101 871.3 101 857 101C842.7 101 828.3 101 814 101C799.7 101 785.3 101 771.2 101C757 101 743 101 728.8 101C714.7 101 700.3 101 686 101C671.7 101 657.3 101 643 101C628.7 101 614.3 101 600 101C585.7 101 571.3 101 557 101C542.7 101 528.3 101 514 101C499.7 101 485.3 101 471.2 101C457 101 443 101 428.8 101C414.7 101 400.3 101 386 101C371.7 101 357.3 101 343 101C328.7 101 314.3 101 300 101C285.7 101 271.3 101 257 101C242.7 101 228.3 101 214 101C199.7 101 185.3 101 171.2 101C157 101 143 101 128.8 101C114.7 101 100.3 101 86 101C71.7 101 57.3 101 43 101C28.7 101 14.3 101 7.2 101L0 101Z" fill="#b2fff8"></path><path d="M0 27L7.2 29.7C14.3 32.3 28.7 37.7 43 36.7C57.3 35.7 71.7 28.3 86 25C100.3 21.7 114.7 22.3 128.8 25.3C143 28.3 157 33.7 171.2 36C185.3 38.3 199.7 37.7 214 33.2C228.3 28.7 242.7 20.3 257 16.3C271.3 12.3 285.7 12.7 300 12.8C314.3 13 328.7 13 343 17.2C357.3 21.3 371.7 29.7 386 33.3C400.3 37 414.7 36 428.8 36.3C443 36.7 457 38.3 471.2 38.8C485.3 39.3 499.7 38.7 514 36.3C528.3 34 542.7 30 557 26.8C571.3 23.7 585.7 21.3 600 22.8C614.3 24.3 628.7 29.7 643 29.3C657.3 29 671.7 23 686 21.8C700.3 20.7 714.7 24.3 728.8 23.5C743 22.7 757 17.3 771.2 18.8C785.3 20.3 799.7 28.7 814 29.2C828.3 29.7 842.7 22.3 857 20.8C871.3 19.3 885.7 23.7 892.8 25.8L900 28L900 101L892.8 101C885.7 101 871.3 101 857 101C842.7 101 828.3 101 814 101C799.7 101 785.3 101 771.2 101C757 101 743 101 728.8 101C714.7 101 700.3 101 686 101C671.7 101 657.3 101 643 101C628.7 101 614.3 101 600 101C585.7 101 571.3 101 557 101C542.7 101 528.3 101 514 101C499.7 101 485.3 101 471.2 101C457 101 443 101 428.8 101C414.7 101 400.3 101 386 101C371.7 101 357.3 101 343 101C328.7 101 314.3 101 300 101C285.7 101 271.3 101 257 101C242.7 101 228.3 101 214 101C199.7 101 185.3 101 171.2 101C157 101 143 101 128.8 101C114.7 101 100.3 101 86 101C71.7 101 57.3 101 43 101C28.7 101 14.3 101 7.2 101L0 101Z" fill="#a1f0ee"></path><path d="M0 53L7.2 51.5C14.3 50 28.7 47 43 43.3C57.3 39.7 71.7 35.3 86 34.2C100.3 33 114.7 35 128.8 37.7C143 40.3 157 43.7 171.2 46.2C185.3 48.7 199.7 50.3 214 47.7C228.3 45 242.7 38 257 33.5C271.3 29 285.7 27 300 29.7C314.3 32.3 328.7 39.7 343 40.2C357.3 40.7 371.7 34.3 386 32.7C400.3 31 414.7 34 428.8 36.3C443 38.7 457 40.3 471.2 42.3C485.3 44.3 499.7 46.7 514 46.5C528.3 46.3 542.7 43.7 557 43.7C571.3 43.7 585.7 46.3 600 43.7C614.3 41 628.7 33 643 29.5C657.3 26 671.7 27 686 29C700.3 31 714.7 34 728.8 36.2C743 38.3 757 39.7 771.2 40.7C785.3 41.7 799.7 42.3 814 40.8C828.3 39.3 842.7 35.7 857 34.3C871.3 33 885.7 34 892.8 34.5L900 35L900 101L892.8 101C885.7 101 871.3 101 857 101C842.7 101 828.3 101 814 101C799.7 101 785.3 101 771.2 101C757 101 743 101 728.8 101C714.7 101 700.3 101 686 101C671.7 101 657.3 101 643 101C628.7 101 614.3 101 600 101C585.7 101 571.3 101 557 101C542.7 101 528.3 101 514 101C499.7 101 485.3 101 471.2 101C457 101 443 101 428.8 101C414.7 101 400.3 101 386 101C371.7 101 357.3 101 343 101C328.7 101 314.3 101 300 101C285.7 101 271.3 101 257 101C242.7 101 228.3 101 214 101C199.7 101 185.3 101 171.2 101C157 101 143 101 128.8 101C114.7 101 100.3 101 86 101C71.7 101 57.3 101 43 101C28.7 101 14.3 101 7.2 101L0 101Z" fill="#90e1e4"></path><path d="M0 61L7.2 58.5C14.3 56 28.7 51 43 51.3C57.3 51.7 71.7 57.3 86 58.8C100.3 60.3 114.7 57.7 128.8 57.3C143 57 157 59 171.2 60.5C185.3 62 199.7 63 214 63.2C228.3 63.3 242.7 62.7 257 62.8C271.3 63 285.7 64 300 63C314.3 62 328.7 59 343 58.8C357.3 58.7 371.7 61.3 386 59.5C400.3 57.7 414.7 51.3 428.8 49.5C443 47.7 457 50.3 471.2 50.3C485.3 50.3 499.7 47.7 514 46.2C528.3 44.7 542.7 44.3 557 45.2C571.3 46 585.7 48 600 46.8C614.3 45.7 628.7 41.3 643 40.5C657.3 39.7 671.7 42.3 686 43.2C700.3 44 714.7 43 728.8 43.3C743 43.7 757 45.3 771.2 47C785.3 48.7 799.7 50.3 814 53C828.3 55.7 842.7 59.3 857 61.2C871.3 63 885.7 63 892.8 63L900 63L900 101L892.8 101C885.7 101 871.3 101 857 101C842.7 101 828.3 101 814 101C799.7 101 785.3 101 771.2 101C757 101 743 101 728.8 101C714.7 101 700.3 101 686 101C671.7 101 657.3 101 643 101C628.7 101 614.3 101 600 101C585.7 101 571.3 101 557 101C542.7 101 528.3 101 514 101C499.7 101 485.3 101 471.2 101C457 101 443 101 428.8 101C414.7 101 400.3 101 386 101C371.7 101 357.3 101 343 101C328.7 101 314.3 101 300 101C285.7 101 271.3 101 257 101C242.7 101 228.3 101 214 101C199.7 101 185.3 101 171.2 101C157 101 143 101 128.8 101C114.7 101 100.3 101 86 101C71.7 101 57.3 101 43 101C28.7 101 14.3 101 7.2 101L0 101Z" fill="#80d2da"></path><path d="M0 61L7.2 59.3C14.3 57.7 28.7 54.3 43 56.8C57.3 59.3 71.7 67.7 86 70C100.3 72.3 114.7 68.7 128.8 65.7C143 62.7 157 60.3 171.2 59C185.3 57.7 199.7 57.3 214 59.8C228.3 62.3 242.7 67.7 257 67.7C271.3 67.7 285.7 62.3 300 59.8C314.3 57.3 328.7 57.7 343 59.3C357.3 61 371.7 64 386 65.5C400.3 67 414.7 67 428.8 64.7C443 62.3 457 57.7 471.2 58.7C485.3 59.7 499.7 66.3 514 65.8C528.3 65.3 542.7 57.7 557 58.2C571.3 58.7 585.7 67.3 600 67.7C614.3 68 628.7 60 643 59C657.3 58 671.7 64 686 64.2C700.3 64.3 714.7 58.7 728.8 55.8C743 53 757 53 771.2 54.3C785.3 55.7 799.7 58.3 814 58.3C828.3 58.3 842.7 55.7 857 54.5C871.3 53.3 885.7 53.7 892.8 53.8L900 54L900 101L892.8 101C885.7 101 871.3 101 857 101C842.7 101 828.3 101 814 101C799.7 101 785.3 101 771.2 101C757 101 743 101 728.8 101C714.7 101 700.3 101 686 101C671.7 101 657.3 101 643 101C628.7 101 614.3 101 600 101C585.7 101 571.3 101 557 101C542.7 101 528.3 101 514 101C499.7 101 485.3 101 471.2 101C457 101 443 101 428.8 101C414.7 101 400.3 101 386 101C371.7 101 357.3 101 343 101C328.7 101 314.3 101 300 101C285.7 101 271.3 101 257 101C242.7 101 228.3 101 214 101C199.7 101 185.3 101 171.2 101C157 101 143 101 128.8 101C114.7 101 100.3 101 86 101C71.7 101 57.3 101 43 101C28.7 101 14.3 101 7.2 101L0 101Z" fill="#71c3d0"></path><path d="M0 70L7.2 70C14.3 70 28.7 70 43 71.7C57.3 73.3 71.7 76.7 86 78C100.3 79.3 114.7 78.7 128.8 77.5C143 76.3 157 74.7 171.2 74.5C185.3 74.3 199.7 75.7 214 76.3C228.3 77 242.7 77 257 76.8C271.3 76.7 285.7 76.3 300 78C314.3 79.7 328.7 83.3 343 82.3C357.3 81.3 371.7 75.7 386 72C400.3 68.3 414.7 66.7 428.8 67.7C443 68.7 457 72.3 471.2 72.2C485.3 72 499.7 68 514 69.3C528.3 70.7 542.7 77.3 557 77.7C571.3 78 585.7 72 600 68.8C614.3 65.7 628.7 65.3 643 68.7C657.3 72 671.7 79 686 80.7C700.3 82.3 714.7 78.7 728.8 78C743 77.3 757 79.7 771.2 80C785.3 80.3 799.7 78.7 814 75.5C828.3 72.3 842.7 67.7 857 67.2C871.3 66.7 885.7 70.3 892.8 72.2L900 74L900 101L892.8 101C885.7 101 871.3 101 857 101C842.7 101 828.3 101 814 101C799.7 101 785.3 101 771.2 101C757 101 743 101 728.8 101C714.7 101 700.3 101 686 101C671.7 101 657.3 101 643 101C628.7 101 614.3 101 600 101C585.7 101 571.3 101 557 101C542.7 101 528.3 101 514 101C499.7 101 485.3 101 471.2 101C457 101 443 101 428.8 101C414.7 101 400.3 101 386 101C371.7 101 357.3 101 343 101C328.7 101 314.3 101 300 101C285.7 101 271.3 101 257 101C242.7 101 228.3 101 214 101C199.7 101 185.3 101 171.2 101C157 101 143 101 128.8 101C114.7 101 100.3 101 86 101C71.7 101 57.3 101 43 101C28.7 101 14.3 101 7.2 101L0 101Z" fill="#62b5c6"></path><path d="M0 98L7.2 94.7C14.3 91.3 28.7 84.7 43 83.8C57.3 83 71.7 88 86 87.7C100.3 87.3 114.7 81.7 128.8 80.8C143 80 157 84 171.2 85.5C185.3 87 199.7 86 214 84.3C228.3 82.7 242.7 80.3 257 82.3C271.3 84.3 285.7 90.7 300 90.5C314.3 90.3 328.7 83.7 343 80.8C357.3 78 371.7 79 386 80.7C400.3 82.3 414.7 84.7 428.8 87.3C443 90 457 93 471.2 92.2C485.3 91.3 499.7 86.7 514 85C528.3 83.3 542.7 84.7 557 86.5C571.3 88.3 585.7 90.7 600 89.7C614.3 88.7 628.7 84.3 643 81.3C657.3 78.3 671.7 76.7 686 77.8C700.3 79 714.7 83 728.8 86.2C743 89.3 757 91.7 771.2 90C785.3 88.3 799.7 82.7 814 82.5C828.3 82.3 842.7 87.7 857 91.3C871.3 95 885.7 97 892.8 98L900 99L900 101L892.8 101C885.7 101 871.3 101 857 101C842.7 101 828.3 101 814 101C799.7 101 785.3 101 771.2 101C757 101 743 101 728.8 101C714.7 101 700.3 101 686 101C671.7 101 657.3 101 643 101C628.7 101 614.3 101 600 101C585.7 101 571.3 101 557 101C542.7 101 528.3 101 514 101C499.7 101 485.3 101 471.2 101C457 101 443 101 428.8 101C414.7 101 400.3 101 386 101C371.7 101 357.3 101 343 101C328.7 101 314.3 101 300 101C285.7 101 271.3 101 257 101C242.7 101 228.3 101 214 101C199.7 101 185.3 101 171.2 101C157 101 143 101 128.8 101C114.7 101 100.3 101 86 101C71.7 101 57.3 101 43 101C28.7 101 14.3 101 7.2 101L0 101Z" fill="#55a6bc"></path></svg>