<svg id="visual" viewBox="0 0 900 200" width="900" height="200" xmlns="http://www.w3.org/2000/svg" xmlns:xlink="http://www.w3.org/1999/xlink" version="1.1"><rect x="0" y="0" width="900" height="200" fill="#1a1a1a"></rect><path d="M0 38L8.8 38.3C17.7 38.7 35.3 39.3 53 36.2C70.7 33 88.3 26 106 25.3C123.7 24.7 141.3 30.3 159 30.5C176.7 30.7 194.3 25.3 212 21.7C229.7 18 247.3 16 265 17.3C282.7 18.7 300.3 23.3 318 27.5C335.7 31.7 353.3 35.3 371 33.3C388.7 31.3 406.3 23.7 423.8 17.7C441.3 11.7 458.7 7.3 476.2 10.7C493.7 14 511.3 25 529 27.8C546.7 30.7 564.3 25.3 582 24.3C599.7 23.3 617.3 26.7 635 28.8C652.7 31 670.3 32 688 27.3C705.7 22.7 723.3 12.3 741 10.8C758.7 9.3 776.3 16.7 794 22.5C811.7 28.3 829.3 32.7 847 36.2C864.7 39.7 882.3 42.3 891.2 43.7L900 45L900 201L891.2 201C882.3 201 864.7 201 847 201C829.3 201 811.7 201 794 201C776.3 201 758.7 201 741 201C723.3 201 705.7 201 688 201C670.3 201 652.7 201 635 201C617.3 201 599.7 201 582 201C564.3 201 546.7 201 529 201C511.3 201 493.7 201 476.2 201C458.7 201 441.3 201 423.8 201C406.3 201 388.7 201 371 201C353.3 201 335.7 201 318 201C300.3 201 282.7 201 265 201C247.3 201 229.7 201 212 201C194.3 201 176.7 201 159 201C141.3 201 123.7 201 106 201C88.3 201 70.7 201 53 201C35.3 201 17.7 201 8.8 201L0 201Z" fill="#b2fff8"></path><path d="M0 52L8.8 49.2C17.7 46.3 35.3 40.7 53 40C70.7 39.3 88.3 43.7 106 46.2C123.7 48.7 141.3 49.3 159 51.8C176.7 54.3 194.3 58.7 212 54.8C229.7 51 247.3 39 265 35.8C282.7 32.7 300.3 38.3 318 43.8C335.7 49.3 353.3 54.7 371 52.2C388.7 49.7 406.3 39.3 423.8 40.8C441.3 42.3 458.7 55.7 476.2 56.5C493.7 57.3 511.3 45.7 529 40.3C546.7 35 564.3 36 582 35.5C599.7 35 617.3 33 635 36C652.7 39 670.3 47 688 49.8C705.7 52.7 723.3 50.3 741 46C758.7 41.7 776.3 35.3 794 37C811.7 38.7 829.3 48.3 847 53C864.7 57.7 882.3 57.3 891.2 57.2L900 57L900 201L891.2 201C882.3 201 864.7 201 847 201C829.3 201 811.7 201 794 201C776.3 201 758.7 201 741 201C723.3 201 705.7 201 688 201C670.3 201 652.7 201 635 201C617.3 201 599.7 201 582 201C564.3 201 546.7 201 529 201C511.3 201 493.7 201 476.2 201C458.7 201 441.3 201 423.8 201C406.3 201 388.7 201 371 201C353.3 201 335.7 201 318 201C300.3 201 282.7 201 265 201C247.3 201 229.7 201 212 201C194.3 201 176.7 201 159 201C141.3 201 123.7 201 106 201C88.3 201 70.7 201 53 201C35.3 201 17.7 201 8.8 201L0 201Z" fill="#80d2da"></path><path d="M0 84L8.8 80.3C17.7 76.7 35.3 69.3 53 71.2C70.7 73 88.3 84 106 83.7C123.7 83.3 141.3 71.7 159 70.7C176.7 69.7 194.3 79.3 212 84.7C229.7 90 247.3 91 265 89C282.7 87 300.3 82 318 78.5C335.7 75 353.3 73 371 71.3C388.7 69.7 406.3 68.3 423.8 67.8C441.3 67.3 458.7 67.7 476.2 69.8C493.7 72 511.3 76 529 75.5C546.7 75 564.3 70 582 71.5C599.7 73 617.3 81 635 82.2C652.7 83.3 670.3 77.7 688 76.5C705.7 75.3 723.3 78.7 741 76.5C758.7 74.3 776.3 66.7 794 63.2C811.7 59.7 829.3 60.3 847 60.7C864.7 61 882.3 61 891.2 61L900 61L900 201L891.2 201C882.3 201 864.7 201 847 201C829.3 201 811.7 201 794 201C776.3 201 758.7 201 741 201C723.3 201 705.7 201 688 201C670.3 201 652.7 201 635 201C617.3 201 599.7 201 582 201C564.3 201 546.7 201 529 201C511.3 201 493.7 201 476.2 201C458.7 201 441.3 201 423.8 201C406.3 201 388.7 201 371 201C353.3 201 335.7 201 318 201C300.3 201 282.7 201 265 201C247.3 201 229.7 201 212 201C194.3 201 176.7 201 159 201C141.3 201 123.7 201 106 201C88.3 201 70.7 201 53 201C35.3 201 17.7 201 8.8 201L0 201Z" fill="#55a6bc"></path><path d="M0 88L8.8 89C17.7 90 35.3 92 53 93.7C70.7 95.3 88.3 96.7 106 97.2C123.7 97.7 141.3 97.3 159 101.2C176.7 105 194.3 113 212 113.3C229.7 113.7 247.3 106.3 265 102.3C282.7 98.3 300.3 97.7 318 99C335.7 100.3 353.3 103.7 371 103.8C388.7 104 406.3 101 423.8 97.7C441.3 94.3 458.7 90.7 476.2 92.8C493.7 95 511.3 103 529 103.7C546.7 104.3 564.3 97.7 582 93.2C599.7 88.7 617.3 86.3 635 89.2C652.7 92 670.3 100 688 102.7C705.7 105.3 723.3 102.7 741 98.7C758.7 94.7 776.3 89.3 794 85.5C811.7 81.7 829.3 79.3 847 85.3C864.7 91.3 882.3 105.7 891.2 112.8L900 120L900 201L891.2 201C882.3 201 864.7 201 847 201C829.3 201 811.7 201 794 201C776.3 201 758.7 201 741 201C723.3 201 705.7 201 688 201C670.3 201 652.7 201 635 201C617.3 201 599.7 201 582 201C564.3 201 546.7 201 529 201C511.3 201 493.7 201 476.2 201C458.7 201 441.3 201 423.8 201C406.3 201 388.7 201 371 201C353.3 201 335.7 201 318 201C300.3 201 282.7 201 265 201C247.3 201 229.7 201 212 201C194.3 201 176.7 201 159 201C141.3 201 123.7 201 106 201C88.3 201 70.7 201 53 201C35.3 201 17.7 201 8.8 201L0 201Z" fill="#327b9b"></path><path d="M0 142L8.8 136C17.7 130 35.3 118 53 116C70.7 114 88.3 122 106 125C123.7 128 141.3 126 159 123C176.7 120 194.3 116 212 112.5C229.7 109 247.3 106 265 108.8C282.7 111.7 300.3 120.3 318 125.5C335.7 130.7 353.3 132.3 371 134.2C388.7 136 406.3 138 423.8 138.3C441.3 138.7 458.7 137.3 476.2 134.7C493.7 132 511.3 128 529 126.5C546.7 125 564.3 126 582 126C599.7 126 617.3 125 635 126.8C652.7 128.7 670.3 133.3 688 136.8C705.7 140.3 723.3 142.7 741 143.5C758.7 144.3 776.3 143.7 794 140.8C811.7 138 829.3 133 847 130.3C864.7 127.7 882.3 127.3 891.2 127.2L900 127L900 201L891.2 201C882.3 201 864.7 201 847 201C829.3 201 811.7 201 794 201C776.3 201 758.7 201 741 201C723.3 201 705.7 201 688 201C670.3 201 652.7 201 635 201C617.3 201 599.7 201 582 201C564.3 201 546.7 201 529 201C511.3 201 493.7 201 476.2 201C458.7 201 441.3 201 423.8 201C406.3 201 388.7 201 371 201C353.3 201 335.7 201 318 201C300.3 201 282.7 201 265 201C247.3 201 229.7 201 212 201C194.3 201 176.7 201 159 201C141.3 201 123.7 201 106 201C88.3 201 70.7 201 53 201C35.3 201 17.7 201 8.8 201L0 201Z" fill="#175278"></path><path d="M0 171L8.8 168.2C17.7 165.3 35.3 159.7 53 152.3C70.7 145 88.3 136 106 136.3C123.7 136.7 141.3 146.3 159 151.7C176.7 157 194.3 158 212 156.3C229.7 154.7 247.3 150.3 265 146C282.7 141.7 300.3 137.3 318 139.7C335.7 142 353.3 151 371 152.3C388.7 153.7 406.3 147.3 423.8 148.7C441.3 150 458.7 159 476.2 159.5C493.7 160 511.3 152 529 147C546.7 142 564.3 140 582 140.8C599.7 141.7 617.3 145.3 635 148.2C652.7 151 670.3 153 688 150.8C705.7 148.7 723.3 142.3 741 138.5C758.7 134.7 776.3 133.3 794 139.2C811.7 145 829.3 158 847 162.8C864.7 167.7 882.3 164.3 891.2 162.7L900 161L900 201L891.2 201C882.3 201 864.7 201 847 201C829.3 201 811.7 201 794 201C776.3 201 758.7 201 741 201C723.3 201 705.7 201 688 201C670.3 201 652.7 201 635 201C617.3 201 599.7 201 582 201C564.3 201 546.7 201 529 201C511.3 201 493.7 201 476.2 201C458.7 201 441.3 201 423.8 201C406.3 201 388.7 201 371 201C353.3 201 335.7 201 318 201C300.3 201 282.7 201 265 201C247.3 201 229.7 201 212 201C194.3 201 176.7 201 159 201C141.3 201 123.7 201 106 201C88.3 201 70.7 201 53 201C35.3 201 17.7 201 8.8 201L0 201Z" fill="#062b52"></path><path d="M0 152L8.8 155C17.7 158 35.3 164 53 169.5C70.7 175 88.3 180 106 179.8C123.7 179.7 141.3 174.3 159 176.2C176.7 178 194.3 187 212 191.2C229.7 195.3 247.3 194.7 265 192.5C282.7 190.3 300.3 186.7 318 186.8C335.7 187 353.3 191 371 186.2C388.7 181.3 406.3 167.7 423.8 160.8C441.3 154 458.7 154 476.2 158.3C493.7 162.7 511.3 171.3 529 176C546.7 180.7 564.3 181.3 582 183.8C599.7 186.3 617.3 190.7 635 192.8C652.7 195 670.3 195 688 190.3C705.7 185.7 723.3 176.3 741 175.5C758.7 174.7 776.3 182.3 794 180.8C811.7 179.3 829.3 168.7 847 164.2C864.7 159.7 882.3 161.3 891.2 162.2L900 163L900 201L891.2 201C882.3 201 864.7 201 847 201C829.3 201 811.7 201 794 201C776.3 201 758.7 201 741 201C723.3 201 705.7 201 688 201C670.3 201 652.7 201 635 201C617.3 201 599.7 201 582 201C564.3 201 546.7 201 529 201C511.3 201 493.7 201 476.2 201C458.7 201 441.3 201 423.8 201C406.3 201 388.7 201 371 201C353.3 201 335.7 201 318 201C300.3 201 282.7 201 265 201C247.3 201 229.7 201 212 201C194.3 201 176.7 201 159 201C141.3 201 123.7 201 106 201C88.3 201 70.7 201 53 201C35.3 201 17.7 201 8.8 201L0 201Z" fill="#04002c"></path></svg>