<svg id="visual" viewBox="0 0 900 200" width="900" height="200" xmlns="http://www.w3.org/2000/svg" xmlns:xlink="http://www.w3.org/1999/xlink" version="1.1"><rect x="0" y="0" width="900" height="200" fill="#1a1a1a"></rect><path d="M0 100L9.3 100.2C18.7 100.3 37.3 100.7 56.2 90.3C75 80 94 59 112.8 48.7C131.7 38.3 150.3 38.7 169 46C187.7 53.3 206.3 67.7 225 64.8C243.7 62 262.3 42 281.2 33.5C300 25 319 28 337.8 39.3C356.7 50.7 375.3 70.3 394 76C412.7 81.7 431.3 73.3 450 65.3C468.7 57.3 487.3 49.7 506.2 44.5C525 39.3 544 36.7 562.8 37.7C581.7 38.7 600.3 43.3 619 53.5C637.7 63.7 656.3 79.3 675 81.7C693.7 84 712.3 73 731.2 67.8C750 62.7 769 63.3 787.8 57.8C806.7 52.3 825.3 40.7 844 40.3C862.7 40 881.3 51 890.7 56.5L900 62L900 201L890.7 201C881.3 201 862.7 201 844 201C825.3 201 806.7 201 787.8 201C769 201 750 201 731.2 201C712.3 201 693.7 201 675 201C656.3 201 637.7 201 619 201C600.3 201 581.7 201 562.8 201C544 201 525 201 506.2 201C487.3 201 468.7 201 450 201C431.3 201 412.7 201 394 201C375.3 201 356.7 201 337.8 201C319 201 300 201 281.2 201C262.3 201 243.7 201 225 201C206.3 201 187.7 201 169 201C150.3 201 131.7 201 112.8 201C94 201 75 201 56.2 201C37.3 201 18.7 201 9.3 201L0 201Z" fill="#b2fff8"></path><path d="M0 98L9.3 95C18.7 92 37.3 86 56.2 85.8C75 85.7 94 91.3 112.8 95.3C131.7 99.3 150.3 101.7 169 103C187.7 104.3 206.3 104.7 225 97.5C243.7 90.3 262.3 75.7 281.2 68.2C300 60.7 319 60.3 337.8 67.3C356.7 74.3 375.3 88.7 394 89.8C412.7 91 431.3 79 450 81C468.7 83 487.3 99 506.2 100C525 101 544 87 562.8 78.2C581.7 69.3 600.3 65.7 619 69.8C637.7 74 656.3 86 675 86.7C693.7 87.3 712.3 76.7 731.2 75.5C750 74.3 769 82.7 787.8 89C806.7 95.3 825.3 99.7 844 92.7C862.7 85.7 881.3 67.3 890.7 58.2L900 49L900 201L890.7 201C881.3 201 862.7 201 844 201C825.3 201 806.7 201 787.8 201C769 201 750 201 731.2 201C712.3 201 693.7 201 675 201C656.3 201 637.7 201 619 201C600.3 201 581.7 201 562.8 201C544 201 525 201 506.2 201C487.3 201 468.7 201 450 201C431.3 201 412.7 201 394 201C375.3 201 356.7 201 337.8 201C319 201 300 201 281.2 201C262.3 201 243.7 201 225 201C206.3 201 187.7 201 169 201C150.3 201 131.7 201 112.8 201C94 201 75 201 56.2 201C37.3 201 18.7 201 9.3 201L0 201Z" fill="#a3f2ef"></path><path d="M0 126L9.3 117.8C18.7 109.7 37.3 93.3 56.2 86.5C75 79.7 94 82.3 112.8 79.7C131.7 77 150.3 69 169 67.3C187.7 65.7 206.3 70.3 225 78.5C243.7 86.7 262.3 98.3 281.2 102C300 105.7 319 101.3 337.8 99.8C356.7 98.3 375.3 99.7 394 103.3C412.7 107 431.3 113 450 115.3C468.7 117.7 487.3 116.3 506.2 107.8C525 99.3 544 83.7 562.8 84.7C581.7 85.7 600.3 103.3 619 107.3C637.7 111.3 656.3 101.7 675 99.5C693.7 97.3 712.3 102.7 731.2 101.7C750 100.7 769 93.3 787.8 91.5C806.7 89.7 825.3 93.3 844 93.2C862.7 93 881.3 89 890.7 87L900 85L900 201L890.7 201C881.3 201 862.7 201 844 201C825.3 201 806.7 201 787.8 201C769 201 750 201 731.2 201C712.3 201 693.7 201 675 201C656.3 201 637.7 201 619 201C600.3 201 581.7 201 562.8 201C544 201 525 201 506.2 201C487.3 201 468.7 201 450 201C431.3 201 412.7 201 394 201C375.3 201 356.7 201 337.8 201C319 201 300 201 281.2 201C262.3 201 243.7 201 225 201C206.3 201 187.7 201 169 201C150.3 201 131.7 201 112.8 201C94 201 75 201 56.2 201C37.3 201 18.7 201 9.3 201L0 201Z" fill="#95e5e7"></path><path d="M0 132L9.3 128.5C18.7 125 37.3 118 56.2 111.2C75 104.3 94 97.7 112.8 97C131.7 96.3 150.3 101.7 169 100C187.7 98.3 206.3 89.7 225 88.8C243.7 88 262.3 95 281.2 102.2C300 109.3 319 116.7 337.8 119.2C356.7 121.7 375.3 119.3 394 120.5C412.7 121.7 431.3 126.3 450 121.3C468.7 116.3 487.3 101.7 506.2 93.7C525 85.7 544 84.3 562.8 88.7C581.7 93 600.3 103 619 104.7C637.7 106.3 656.3 99.7 675 98C693.7 96.3 712.3 99.7 731.2 104.7C750 109.7 769 116.3 787.8 115.3C806.7 114.3 825.3 105.7 844 100.5C862.7 95.3 881.3 93.7 890.7 92.8L900 92L900 201L890.7 201C881.3 201 862.7 201 844 201C825.3 201 806.7 201 787.8 201C769 201 750 201 731.2 201C712.3 201 693.7 201 675 201C656.3 201 637.7 201 619 201C600.3 201 581.7 201 562.8 201C544 201 525 201 506.2 201C487.3 201 468.7 201 450 201C431.3 201 412.7 201 394 201C375.3 201 356.7 201 337.8 201C319 201 300 201 281.2 201C262.3 201 243.7 201 225 201C206.3 201 187.7 201 169 201C150.3 201 131.7 201 112.8 201C94 201 75 201 56.2 201C37.3 201 18.7 201 9.3 201L0 201Z" fill="#87d8de"></path><path d="M0 117L9.3 122.3C18.7 127.7 37.3 138.3 56.2 140.7C75 143 94 137 112.8 129C131.7 121 150.3 111 169 105.8C187.7 100.7 206.3 100.3 225 101.7C243.7 103 262.3 106 281.2 110.3C300 114.7 319 120.3 337.8 121.3C356.7 122.3 375.3 118.7 394 118C412.7 117.3 431.3 119.7 450 117.3C468.7 115 487.3 108 506.2 112.2C525 116.3 544 131.7 562.8 133C581.7 134.3 600.3 121.7 619 119.3C637.7 117 656.3 125 675 130.5C693.7 136 712.3 139 731.2 133.8C750 128.7 769 115.3 787.8 115.3C806.7 115.3 825.3 128.7 844 133.7C862.7 138.7 881.3 135.3 890.7 133.7L900 132L900 201L890.7 201C881.3 201 862.7 201 844 201C825.3 201 806.7 201 787.8 201C769 201 750 201 731.2 201C712.3 201 693.7 201 675 201C656.3 201 637.7 201 619 201C600.3 201 581.7 201 562.8 201C544 201 525 201 506.2 201C487.3 201 468.7 201 450 201C431.3 201 412.7 201 394 201C375.3 201 356.7 201 337.8 201C319 201 300 201 281.2 201C262.3 201 243.7 201 225 201C206.3 201 187.7 201 169 201C150.3 201 131.7 201 112.8 201C94 201 75 201 56.2 201C37.3 201 18.7 201 9.3 201L0 201Z" fill="#79ccd6"></path><path d="M0 143L9.3 142.8C18.7 142.7 37.3 142.3 56.2 140.2C75 138 94 134 112.8 134.8C131.7 135.7 150.3 141.3 169 142.7C187.7 144 206.3 141 225 143.7C243.7 146.3 262.3 154.7 281.2 152.7C300 150.7 319 138.3 337.8 131.8C356.7 125.3 375.3 124.7 394 128.8C412.7 133 431.3 142 450 145.8C468.7 149.7 487.3 148.3 506.2 144.3C525 140.3 544 133.7 562.8 129.5C581.7 125.3 600.3 123.7 619 127C637.7 130.3 656.3 138.7 675 143C693.7 147.3 712.3 147.7 731.2 148.5C750 149.3 769 150.7 787.8 151.2C806.7 151.7 825.3 151.3 844 148.5C862.7 145.7 881.3 140.3 890.7 137.7L900 135L900 201L890.7 201C881.3 201 862.7 201 844 201C825.3 201 806.7 201 787.8 201C769 201 750 201 731.2 201C712.3 201 693.7 201 675 201C656.3 201 637.7 201 619 201C600.3 201 581.7 201 562.8 201C544 201 525 201 506.2 201C487.3 201 468.7 201 450 201C431.3 201 412.7 201 394 201C375.3 201 356.7 201 337.8 201C319 201 300 201 281.2 201C262.3 201 243.7 201 225 201C206.3 201 187.7 201 169 201C150.3 201 131.7 201 112.8 201C94 201 75 201 56.2 201C37.3 201 18.7 201 9.3 201L0 201Z" fill="#6dbfcd"></path><path d="M0 141L9.3 145C18.7 149 37.3 157 56.2 163.2C75 169.3 94 173.7 112.8 173.8C131.7 174 150.3 170 169 167.5C187.7 165 206.3 164 225 163.2C243.7 162.3 262.3 161.7 281.2 158.3C300 155 319 149 337.8 148.8C356.7 148.7 375.3 154.3 394 157.7C412.7 161 431.3 162 450 160.5C468.7 159 487.3 155 506.2 152.2C525 149.3 544 147.7 562.8 150.3C581.7 153 600.3 160 619 161.5C637.7 163 656.3 159 675 156.5C693.7 154 712.3 153 731.2 151.3C750 149.7 769 147.3 787.8 150.3C806.7 153.3 825.3 161.7 844 167C862.7 172.3 881.3 174.7 890.7 175.8L900 177L900 201L890.7 201C881.3 201 862.7 201 844 201C825.3 201 806.7 201 787.8 201C769 201 750 201 731.2 201C712.3 201 693.7 201 675 201C656.3 201 637.7 201 619 201C600.3 201 581.7 201 562.8 201C544 201 525 201 506.2 201C487.3 201 468.7 201 450 201C431.3 201 412.7 201 394 201C375.3 201 356.7 201 337.8 201C319 201 300 201 281.2 201C262.3 201 243.7 201 225 201C206.3 201 187.7 201 169 201C150.3 201 131.7 201 112.8 201C94 201 75 201 56.2 201C37.3 201 18.7 201 9.3 201L0 201Z" fill="#61b2c5"></path><path d="M0 188L9.3 185.3C18.7 182.7 37.3 177.3 56.2 174.5C75 171.7 94 171.3 112.8 170.2C131.7 169 150.3 167 169 165.7C187.7 164.3 206.3 163.7 225 163.7C243.7 163.7 262.3 164.3 281.2 169.2C300 174 319 183 337.8 185.5C356.7 188 375.3 184 394 183.3C412.7 182.7 431.3 185.3 450 184.8C468.7 184.3 487.3 180.7 506.2 179C525 177.3 544 177.7 562.8 176.7C581.7 175.7 600.3 173.3 619 171.7C637.7 170 656.3 169 675 171.5C693.7 174 712.3 180 731.2 183.5C750 187 769 188 787.8 186.5C806.7 185 825.3 181 844 177.3C862.7 173.7 881.3 170.3 890.7 168.7L900 167L900 201L890.7 201C881.3 201 862.7 201 844 201C825.3 201 806.7 201 787.8 201C769 201 750 201 731.2 201C712.3 201 693.7 201 675 201C656.3 201 637.7 201 619 201C600.3 201 581.7 201 562.8 201C544 201 525 201 506.2 201C487.3 201 468.7 201 450 201C431.3 201 412.7 201 394 201C375.3 201 356.7 201 337.8 201C319 201 300 201 281.2 201C262.3 201 243.7 201 225 201C206.3 201 187.7 201 169 201C150.3 201 131.7 201 112.8 201C94 201 75 201 56.2 201C37.3 201 18.7 201 9.3 201L0 201Z" fill="#55a6bc"></path></svg>